HIERARCHY
ROOT Hips
{
	OFFSET 0.000000 0.000000 0.000000
	CHANNELS 6 Xposition Yposition Zposition Xrotation Yrotation Zrotation
	JOINT Thigh.L
	{
		OFFSET 0.055494 0.027456 -0.093490
		CHANNELS 3 Xrotation Yrotation Zrotation
		JOINT Shin.L
		{
			OFFSET 0.060253 0.007354 -0.410487
			CHANNELS 3 Xrotation Yrotation Zrotation
			JOINT Foot.L
			{
				OFFSET -0.042576 0.031803 -0.436284
				CHANNELS 3 Xrotation Yrotation Zrotation
				JOINT Toe.L
				{
					OFFSET 0.048087 -0.126093 -0.064338
					CHANNELS 3 Xrotation Yrotation Zrotation
					End Site
					{
						OFFSET 0.000000 0.050000 0.000000
					}
				}
			}
		}
	}
	JOINT Thigh.R
	{
		OFFSET -0.060649 0.021970 -0.105751
		CHANNELS 3 Xrotation Yrotation Zrotation
		JOINT Shin.R
		{
			OFFSET -0.049193 0.015205 -0.392253
			CHANNELS 3 Xrotation Yrotation Zrotation
			JOINT Foot.R
			{
				OFFSET 0.014522 0.019961 -0.445290
				CHANNELS 3 Xrotation Yrotation Zrotation
				JOINT Toe.R
				{
					OFFSET -0.039533 -0.126913 -0.064208
					CHANNELS 3 Xrotation Yrotation Zrotation
					End Site
					{
						OFFSET 0.000000 0.050000 0.000000
					}
				}
			}
		}
	}
	JOINT Spine
	{
		OFFSET -0.002639 0.027284 0.111813
		CHANNELS 3 Xrotation Yrotation Zrotation
		JOINT Spine.2
		{
			OFFSET 0.008736 0.006538 0.137119
			CHANNELS 3 Xrotation Yrotation Zrotation
			JOINT Chest
			{
				OFFSET -0.010703 -0.022841 0.054958
				CHANNELS 3 Xrotation Yrotation Zrotation
				JOINT Neck
				{
					OFFSET -0.011860 0.026299 0.169671
					CHANNELS 3 Xrotation Yrotation Zrotation
					JOINT Head
					{
						OFFSET 0.025006 -0.022276 0.173250
						CHANNELS 3 Xrotation Yrotation Zrotation
						End Site
						{
							OFFSET 0.000000 0.050000 0.000000
						}
					}
				}
				JOINT Clavicle.L
				{
					OFFSET 0.046941 0.005288 0.087113
					CHANNELS 3 Xrotation Yrotation Zrotation
					JOINT UpperArm.L
					{
						OFFSET 0.125954 0.013785 0.057844
						CHANNELS 3 Xrotation Yrotation Zrotation
						JOINT ForeArm.L
						{
							OFFSET 0.271660 0.042473 -0.076410
							CHANNELS 3 Xrotation Yrotation Zrotation
							JOINT Hand.L
							{
								OFFSET 0.275237 0.001524 0.021946
								CHANNELS 3 Xrotation Yrotation Zrotation
								JOINT Thumb1.L
								{
									OFFSET 0.154619 0.000662 0.009538
									CHANNELS 3 Xrotation Yrotation Zrotation
									JOINT Thumb2.L
									{
										OFFSET 0.029905 0.000166 0.002384
										CHANNELS 3 Xrotation Yrotation Zrotation
										End Site
										{
											OFFSET 0.024921 0.000138 0.001987
										}
									}
								}
								JOINT Index1.L
								{
									OFFSET 0.137619 0.000662 0.009538
									CHANNELS 3 Xrotation Yrotation Zrotation
									JOINT Index2.L
									{
										OFFSET 0.029905 0.000166 0.002384
										CHANNELS 3 Xrotation Yrotation Zrotation
										JOINT Index3.L
										{
											OFFSET 0.021930 0.000121 0.001749
											CHANNELS 3 Xrotation Yrotation Zrotation
											End Site
											{
												OFFSET 0.017943 0.000099 0.001431
											}
										}
									}
								}
								JOINT Middle1.L
								{
									OFFSET 0.119619 0.000662 0.009538
									CHANNELS 3 Xrotation Yrotation Zrotation
									JOINT Middle2.L
									{
										OFFSET 0.030901 0.000171 0.002464
										CHANNELS 3 Xrotation Yrotation Zrotation
										JOINT Middle3.L
										{
											OFFSET 0.021930 0.000121 0.001749
											CHANNELS 3 Xrotation Yrotation Zrotation
											End Site
											{
												OFFSET 0.017943 0.000099 0.001431
											}
										}
									}
								}
								JOINT Ring1.L
								{
									OFFSET 0.101619 0.000662 0.009538
									CHANNELS 3 Xrotation Yrotation Zrotation
									JOINT Ring2.L
									{
										OFFSET 0.028908 0.000160 0.002305
										CHANNELS 3 Xrotation Yrotation Zrotation
										JOINT Ring3.L
										{
											OFFSET 0.019936 0.000110 0.001590
											CHANNELS 3 Xrotation Yrotation Zrotation
											End Site
											{
												OFFSET 0.016946 0.000094 0.001351
											}
										}
									}
								}
								JOINT Pinky1.L
								{
									OFFSET 0.085619 0.000662 0.009538
									CHANNELS 3 Xrotation Yrotation Zrotation
									JOINT Pinky2.L
									{
										OFFSET 0.023924 0.000132 0.001908
										CHANNELS 3 Xrotation Yrotation Zrotation
										JOINT Pinky3.L
										{
											OFFSET 0.016946 0.000094 0.001351
											CHANNELS 3 Xrotation Yrotation Zrotation
											End Site
											{
												OFFSET 0.013955 0.000077 0.001113
											}
										}
									}
								}
							}
						}
					}
				}
				JOINT Clavicle.R
				{
					OFFSET -0.047575 0.011420 0.086169
					CHANNELS 3 Xrotation Yrotation Zrotation
					JOINT UpperArm.R
					{
						OFFSET -0.109236 0.009861 0.054277
						CHANNELS 3 Xrotation Yrotation Zrotation
						JOINT ForeArm.R
						{
							OFFSET -0.289968 0.027569 -0.041166
							CHANNELS 3 Xrotation Yrotation Zrotation
							JOINT Hand.R
							{
								OFFSET -0.271473 0.015072 -0.005550
								CHANNELS 3 Xrotation Yrotation Zrotation
								JOINT Thumb1.R
								{
									OFFSET -0.154791 0.006651 -0.002449
									CHANNELS 3 Xrotation Yrotation Zrotation
									JOINT Thumb2.R
									{
										OFFSET -0.029948 0.001663 -0.000612
										CHANNELS 3 Xrotation Yrotation Zrotation
										End Site
										{
											OFFSET -0.024956 0.001386 -0.000510
										}
									}
								}
								JOINT Index1.R
								{
									OFFSET -0.137791 0.006651 -0.002449
									CHANNELS 3 Xrotation Yrotation Zrotation
									JOINT Index2.R
									{
										OFFSET -0.029948 0.001663 -0.000612
										CHANNELS 3 Xrotation Yrotation Zrotation
										JOINT Index3.R
										{
											OFFSET -0.021962 0.001219 -0.000449
											CHANNELS 3 Xrotation Yrotation Zrotation
											End Site
											{
												OFFSET -0.017969 0.000998 -0.000367
											}
										}
									}
								}
								JOINT Middle1.R
								{
									OFFSET -0.119791 0.006651 -0.002449
									CHANNELS 3 Xrotation Yrotation Zrotation
									JOINT Middle2.R
									{
										OFFSET -0.030946 0.001718 -0.000633
										CHANNELS 3 Xrotation Yrotation Zrotation
										JOINT Middle3.R
										{
											OFFSET -0.021962 0.001219 -0.000449
											CHANNELS 3 Xrotation Yrotation Zrotation
											End Site
											{
												OFFSET -0.017969 0.000998 -0.000367
											}
										}
									}
								}
								JOINT Ring1.R
								{
									OFFSET -0.101791 0.006651 -0.002449
									CHANNELS 3 Xrotation Yrotation Zrotation
									JOINT Ring2.R
									{
										OFFSET -0.028949 0.001607 -0.000592
										CHANNELS 3 Xrotation Yrotation Zrotation
										JOINT Ring3.R
										{
											OFFSET -0.019965 0.001108 -0.000408
											CHANNELS 3 Xrotation Yrotation Zrotation
											End Site
											{
												OFFSET -0.016970 0.000942 -0.000347
											}
										}
									}
								}
								JOINT Pinky1.R
								{
									OFFSET -0.085791 0.006651 -0.002449
									CHANNELS 3 Xrotation Yrotation Zrotation
									JOINT Pinky2.R
									{
										OFFSET -0.023958 0.001330 -0.000490
										CHANNELS 3 Xrotation Yrotation Zrotation
										JOINT Pinky3.R
										{
											OFFSET -0.016970 0.000942 -0.000347
											CHANNELS 3 Xrotation Yrotation Zrotation
											End Site
											{
												OFFSET -0.013976 0.000776 -0.000286
											}
										}
									}
								}
							}
						}
					}
				}
			}
		}
	}
}
MOTION
Frames: 7
Frame Time: 0.04166667
0.102115 0.178867 1.015151 -10.110116 -4.106200 13.257483 -1.588455 -17.620948 6.835177 58.957503 -3.077199 -7.132660 -44.329037 -7.031285 3.570558 -0.915904 -0.339087 -1.225481 -45.458695 16.500513 6.213815 64.677026 -9.994014 -2.026553 -24.090814 -4.474645 4.935883 -0.862937 -3.803111 -0.160537 33.843531 -2.953441 -1.661901 -8.006096 -3.916627 -1.752446 3.023918 1.579421 0.892933 14.455238 1.768953 8.396760 4.683769 -1.850283 -12.609766 -14.239884 -0.234442 -36.162551 6.843231 30.069218 -53.151270 18.579253 -13.518565 -38.667827 6.122610 -20.151391 -12.923121 0.000000 0.000000 0.000000 0.000000 0.000000 0.000000 0.000000 0.000000 0.000000 0.000000 0.000000 0.000000 0.000000 0.000000 0.000000 0.000000 0.000000 0.000000 0.000000 0.000000 0.000000 0.000000 0.000000 0.000000 0.000000 0.000000 0.000000 0.000000 0.000000 0.000000 0.000000 0.000000 0.000000 0.000000 0.000000 0.000000 0.000000 0.000000 0.000000 0.000000 0.000000 0.000000 -12.058204 -8.658550 32.810827 -0.801264 -43.610802 52.265206 -45.392334 -0.977638 85.214549 -51.240388 25.420989 19.955200 0.000000 0.000000 0.000000 0.000000 0.000000 0.000000 0.000000 0.000000 0.000000 0.000000 0.000000 0.000000 0.000000 0.000000 0.000000 0.000000 0.000000 0.000000 0.000000 0.000000 0.000000 0.000000 0.000000 0.000000 0.000000 0.000000 0.000000 0.000000 0.000000 0.000000 0.000000 0.000000 0.000000 0.000000 0.000000 0.000000 0.000000 0.000000 0.000000 0.000000 0.000000 0.000000
0.102644 0.179952 1.015227 -10.052012 -4.154502 13.290323 -1.500924 -17.620162 6.938848 58.765056 -3.085095 -7.110382 -44.363529 -7.024517 3.481878 -0.925286 -0.320142 -1.232822 -45.466691 16.526959 6.174597 64.699002 -9.947256 -2.140011 -24.201878 -4.436094 4.941731 -0.892730 -3.799914 -0.134059 33.846082 -2.965123 -1.698552 -8.001635 -3.893698 -1.783335 3.040802 1.601253 0.864098 14.365811 1.823864 8.514555 4.781789 -1.832776 -12.500491 -14.207910 -0.222344 -36.120756 6.707359 29.951707 -53.004057 18.612839 -13.506997 -38.604127 6.322696 -20.206927 -12.882430 0.000000 0.000000 0.000000 0.000000 0.000000 0.000000 0.000000 0.000000 0.000000 0.000000 0.000000 0.000000 0.000000 0.000000 0.000000 0.000000 0.000000 0.000000 0.000000 0.000000 0.000000 0.000000 0.000000 0.000000 0.000000 0.000000 0.000000 0.000000 0.000000 0.000000 0.000000 0.000000 0.000000 0.000000 0.000000 0.000000 0.000000 0.000000 0.000000 0.000000 0.000000 0.000000 -12.096762 -8.648145 32.762897 -0.624255 -43.619140 52.345843 -45.254329 -0.792373 85.289668 -50.866858 25.537180 19.948961 0.000000 0.000000 0.000000 0.000000 0.000000 0.000000 0.000000 0.000000 0.000000 0.000000 0.000000 0.000000 0.000000 0.000000 0.000000 0.000000 0.000000 0.000000 0.000000 0.000000 0.000000 0.000000 0.000000 0.000000 0.000000 0.000000 0.000000 0.000000 0.000000 0.000000 0.000000 0.000000 0.000000 0.000000 0.000000 0.000000 0.000000 0.000000 0.000000 0.000000 0.000000 0.000000
0.103042 0.180899 1.015483 -9.978967 -4.167426 13.336008 -1.505868 -17.644304 7.007639 58.627993 -3.109876 -7.081216 -44.286655 -6.971066 3.419699 -0.940943 -0.316336 -1.245652 -45.561264 16.517072 6.178377 64.790900 -9.929417 -2.229739 -24.052926 -4.404511 4.944756 -0.904759 -3.803360 -0.122136 33.856114 -2.974136 -1.734201 -7.956884 -3.921826 -1.822225 2.990735 1.629641 0.814523 14.368641 1.812328 8.636588 4.844691 -1.837642 -12.411640 -14.170565 -0.229880 -36.105109 6.558320 29.871051 -52.842218 18.636748 -13.494973 -38.500400 6.529040 -20.147802 -12.831792 0.000000 0.000000 0.000000 0.000000 0.000000 0.000000 0.000000 0.000000 0.000000 0.000000 0.000000 0.000000 0.000000 0.000000 0.000000 0.000000 0.000000 0.000000 0.000000 0.000000 0.000000 0.000000 0.000000 0.000000 0.000000 0.000000 0.000000 0.000000 0.000000 0.000000 0.000000 0.000000 0.000000 0.000000 0.000000 0.000000 0.000000 0.000000 0.000000 0.000000 0.000000 0.000000 -12.129949 -8.613068 32.735031 -0.459035 -43.636636 52.488138 -45.164878 -0.527286 85.296952 -50.425911 25.468770 19.830033 0.000000 0.000000 0.000000 0.000000 0.000000 0.000000 0.000000 0.000000 0.000000 0.000000 0.000000 0.000000 0.000000 0.000000 0.000000 0.000000 0.000000 0.000000 0.000000 0.000000 0.000000 0.000000 0.000000 0.000000 0.000000 0.000000 0.000000 0.000000 0.000000 0.000000 0.000000 0.000000 0.000000 0.000000 0.000000 0.000000 0.000000 0.000000 0.000000 0.000000 0.000000 0.000000
0.103132 0.182968 1.015806 -9.861541 -4.171283 13.387326 -1.487736 -17.701005 7.106707 58.466883 -3.092992 -7.054384 -44.148003 -6.823858 3.363245 -0.967326 -0.309185 -1.265823 -45.589852 16.534254 6.158865 64.828807 -9.929285 -2.304398 -24.103499 -4.363623 4.936849 -0.905311 -3.810741 -0.113293 33.827113 -3.001581 -1.786358 -7.913683 -3.940818 -1.845775 2.972572 1.646508 0.788372 14.226903 1.847499 8.750150 4.802117 -1.779736 -12.330732 -14.137130 -0.208795 -36.042687 6.463255 29.834024 -52.753309 18.650203 -13.514538 -38.487876 6.756837 -20.155457 -12.815524 0.000000 0.000000 0.000000 0.000000 0.000000 0.000000 0.000000 0.000000 0.000000 0.000000 0.000000 0.000000 0.000000 0.000000 0.000000 0.000000 0.000000 0.000000 0.000000 0.000000 0.000000 0.000000 0.000000 0.000000 0.000000 0.000000 0.000000 0.000000 0.000000 0.000000 0.000000 0.000000 0.000000 0.000000 0.000000 0.000000 0.000000 0.000000 0.000000 0.000000 0.000000 0.000000 -12.149613 -8.627101 32.695196 -0.315729 -43.616531 52.564395 -45.005207 -0.360562 85.517383 -50.049246 25.446801 19.798386 0.000000 0.000000 0.000000 0.000000 0.000000 0.000000 0.000000 0.000000 0.000000 0.000000 0.000000 0.000000 0.000000 0.000000 0.000000 0.000000 0.000000 0.000000 0.000000 0.000000 0.000000 0.000000 0.000000 0.000000 0.000000 0.000000 0.000000 0.000000 0.000000 0.000000 0.000000 0.000000 0.000000 0.000000 0.000000 0.000000 0.000000 0.000000 0.000000 0.000000 0.000000 0.000000
0.103079 0.185049 1.016261 -9.769990 -4.160430 13.453038 -1.452048 -17.747722 7.177870 58.318719 -3.122830 -7.083513 -43.949494 -6.675353 3.358783 -1.008505 -0.310933 -1.288858 -45.633002 16.526864 6.157935 64.958650 -9.930302 -2.375639 -24.019718 -4.298085 4.923786 -0.918372 -3.823880 -0.103969 33.785075 -3.036189 -1.838373 -7.841215 -3.987103 -1.868359 2.921930 1.680044 0.748848 14.094830 1.818396 8.927085 4.772903 -1.702382 -12.259140 -14.080993 -0.193633 -36.012628 6.373648 29.834388 -52.655855 18.658446 -13.494839 -38.423217 6.867959 -20.058322 -12.795208 0.000000 0.000000 0.000000 0.000000 0.000000 0.000000 0.000000 0.000000 0.000000 0.000000 0.000000 0.000000 0.000000 0.000000 0.000000 0.000000 0.000000 0.000000 0.000000 0.000000 0.000000 0.000000 0.000000 0.000000 0.000000 0.000000 0.000000 0.000000 0.000000 0.000000 0.000000 0.000000 0.000000 0.000000 0.000000 0.000000 0.000000 0.000000 0.000000 0.000000 0.000000 0.000000 -12.151435 -8.622794 32.668472 -0.149900 -43.611882 52.666212 -44.930514 -0.166701 85.690997 -49.745571 25.402902 19.732947 0.000000 0.000000 0.000000 0.000000 0.000000 0.000000 0.000000 0.000000 0.000000 0.000000 0.000000 0.000000 0.000000 0.000000 0.000000 0.000000 0.000000 0.000000 0.000000 0.000000 0.000000 0.000000 0.000000 0.000000 0.000000 0.000000 0.000000 0.000000 0.000000 0.000000 0.000000 0.000000 0.000000 0.000000 0.000000 0.000000 0.000000 0.000000 0.000000 0.000000 0.000000 0.000000
0.102956 0.186677 1.016962 -9.761846 -4.166921 13.465898 -1.304378 -17.798748 7.288106 58.181997 -3.116402 -7.053793 -43.709467 -6.444793 3.366583 -1.045000 -0.327903 -1.307724 -45.551050 16.501715 6.130046 65.040718 -9.890446 -2.429351 -23.993330 -4.230378 4.907825 -0.932580 -3.821254 -0.088408 33.717012 -3.065661 -1.881858 -7.764302 -3.999498 -1.880845 2.929995 1.709198 0.732576 13.771504 1.812616 9.129041 4.576443 -1.575459 -12.152217 -14.049070 -0.185549 -35.945750 6.353822 29.876812 -52.588648 18.762717 -13.454396 -38.358832 6.897743 -19.939254 -12.797593 0.000000 0.000000 0.000000 0.000000 0.000000 0.000000 0.000000 0.000000 0.000000 0.000000 0.000000 0.000000 0.000000 0.000000 0.000000 0.000000 0.000000 0.000000 0.000000 0.000000 0.000000 0.000000 0.000000 0.000000 0.000000 0.000000 0.000000 0.000000 0.000000 0.000000 0.000000 0.000000 0.000000 0.000000 0.000000 0.000000 0.000000 0.000000 0.000000 0.000000 0.000000 0.000000 -12.126011 -8.641582 32.613852 0.022126 -43.666351 52.752992 -44.877245 -0.023558 85.776879 -49.559323 25.475383 19.708578 0.000000 0.000000 0.000000 0.000000 0.000000 0.000000 0.000000 0.000000 0.000000 0.000000 0.000000 0.000000 0.000000 0.000000 0.000000 0.000000 0.000000 0.000000 0.000000 0.000000 0.000000 0.000000 0.000000 0.000000 0.000000 0.000000 0.000000 0.000000 0.000000 0.000000 0.000000 0.000000 0.000000 0.000000 0.000000 0.000000 0.000000 0.000000 0.000000 0.000000 0.000000 0.000000
0.102884 0.187644 1.017852 -9.778163 -4.171210 13.473073 -1.266950 -17.838063 7.339791 58.201164 -3.124189 -7.080739 -43.294710 -6.194011 3.456791 -1.089598 -0.354195 -1.345253 -45.466562 16.435141 6.092887 65.088670 -9.809877 -2.499835 -23.843014 -4.125456 4.874359 -0.948312 -3.825749 -0.073891 33.655304 -3.084642 -1.903281 -7.635294 -4.050909 -1.928158 2.912744 1.737155 0.699934 13.472831 1.806347 9.370362 4.337144 -1.447392 -12.049233 -14.006758 -0.152040 -35.949642 6.309802 29.883074 -52.450499 18.804312 -13.387874 -38.310024 6.870670 -19.850421 -12.843879 0.000000 0.000000 0.000000 0.000000 0.000000 0.000000 0.000000 0.000000 0.000000 0.000000 0.000000 0.000000 0.000000 0.000000 0.000000 0.000000 0.000000 0.000000 0.000000 0.000000 0.000000 0.000000 0.000000 0.000000 0.000000 0.000000 0.000000 0.000000 0.000000 0.000000 0.000000 0.000000 0.000000 0.000000 0.000000 0.000000 0.000000 0.000000 0.000000 0.000000 0.000000 0.000000 -12.135871 -8.641518 32.648688 0.148470 -43.721231 52.784850 -44.899701 0.038449 85.728427 -49.443069 25.501855 19.664662 0.000000 0.000000 0.000000 0.000000 0.000000 0.000000 0.000000 0.000000 0.000000 0.000000 0.000000 0.000000 0.000000 0.000000 0.000000 0.000000 0.000000 0.000000 0.000000 0.000000 0.000000 0.000000 0.000000 0.000000 0.000000 0.000000 0.000000 0.000000 0.000000 0.000000 0.000000 0.000000 0.000000 0.000000 0.000000 0.000000 0.000000 0.000000 0.000000 0.000000 0.000000 0.000000
